{
	"asset":	{
		"version":	"2.0",
		"generator":	"exported by Modelo"
	},
	"scene":	0,
	"scenes":	[{
			"nodes":	[0]
		}],
	"materials":	[{
			"pbrMetallicRoughness":	{
				"baseColorFactor":	[1, 0.501960813999176, 0.24705882370471954, 1],
				"metallicFactor":	0,
				"roughnessFactor":	1
			},
			"name":	"color_4080ff",
			"doubleSided":	true
		}],
	"meshes":	[{
			"primitives":	[{
					"attributes":	{
						"POSITION":	1,
						"NORMAL":	2
					},
					"indices":	0,
					"material":	0
				}]
		}],
	"accessors":	[{
			"bufferView":	0,
			"byteOffset":	0,
			"componentType":	5125,
			"count":	2997114,
			"type":	"SCALAR",
			"name":	"accessorIndices_0",
			"max":	[568529],
			"min":	[0]
		}, {
			"bufferView":	1,
			"byteOffset":	0,
			"componentType":	5126,
			"count":	568530,
			"type":	"VEC3",
			"name":	"accessorPositions",
			"max":	[0.01374733354896307, -0.0382331982254982, -0.07240188866853714],
			"min":	[-0.0082916580140590668, -0.055294681340456, -0.0949418470263481]
		}, {
			"bufferView":	2,
			"byteOffset":	0,
			"componentType":	5126,
			"count":	568530,
			"type":	"VEC3",
			"name":	"accessorNormals",
			"max":	[1, 1, 1],
			"min":	[-1, -1, -1]
		}],
	"nodes":	[{
			"children":	[1],
			"matrix":	[1, 0, 0, 0, 0, 0, -1, 0, 0, 1, 0, 0, 0, 0, 0, 1]
		}, {
			"mesh":	0
		}],
	"bufferViews":	[{
			"buffer":	0,
			"byteOffset":	0,
			"byteLength":	11988456,
			"name":	"bufferViewIndex"
		}, {
			"buffer":	0,
			"byteOffset":	11988456,
			"byteLength":	6822360,
			"byteStride":	12,
			"name":	"bufferViewPosition"
		}, {
			"buffer":	0,
			"byteOffset":	18810816,
			"byteLength":	6822360,
			"byteStride":	12,
			"name":	"bufferViewNormal"
		}],
	"buffers":	[{
			"byteLength":	25633176,
			"uri":	"150624.bin"
		}]
}