{
    "asset": {
        "version": "2.0",
        "generator": "Open Asset Import Library (assimp v5.0.5eb040c7)"
    },
    "accessors": [
        {
            "bufferView": 0,
            "byteOffset": 0,
            "componentType": 5126,
            "count": 498597,
            "type": "VEC3",
            "max": [
                0.0451028011739254,
                -0.12543700635433198,
                -0.23753899335861207
            ],
            "min": [
                -0.027203600853681566,
                -0.18141299486160279,
                -0.3114889860153198
            ]
        },
        {
            "bufferView": 1,
            "byteOffset": 0,
            "componentType": 5125,
            "count": 2997114,
            "type": "SCALAR",
            "max": [
                498596
            ],
            "min": [
                0
            ]
        }
    ],
    "buffers": [
        {
            "byteLength": 17971620,
            "uri": "result.bin"
        }
    ],
    "bufferViews": [
        {
            "buffer": 0,
            "byteOffset": 0,
            "byteLength": 5983164,
            "target": 34962
        },
        {
            "buffer": 0,
            "byteOffset": 5983164,
            "byteLength": 11988456,
            "target": 34963
        }
    ],
    "materials": [
        {
            "name": "DefaultMaterial",
            "pbrMetallicRoughness": {
                "baseColorFactor": [
                    0.6000000238418579,
                    0.6000000238418579,
                    0.6000000238418579,
                    1.0
                ],
                "metallicFactor": 0.0
            }
        },
        {
            "name": "color_4080ff",
            "pbrMetallicRoughness": {
                "baseColorFactor": [
                    0.6000000238418579,
                    0.6000000238418579,
                    0.6000000238418579,
                    1.0
                ],
                "metallicFactor": 0.0
            }
        }
    ],
    "meshes": [
        {
            "name": "Shell-1",
            "primitives": [
                {
                    "mode": 4,
                    "material": 1,
                    "indices": 1,
                    "attributes": {
                        "POSITION": 0
                    }
                }
            ]
        }
    ],
    "nodes": [
        {
            "name": "input.obj",
            "children": [
                1
            ]
        },
        {
            "name": "Shell-1",
            "mesh": 0
        }
    ],
    "scenes": [
        {
            "nodes": [
                0
            ]
        }
    ],
    "scene": 0
}